<svg id="Layer_1" data-name="Layer 1" xmlns="http://www.w3.org/2000/svg" viewBox="0 0 130 130"><defs><style>.cls-1,.cls-2{fill:#fff;}.cls-2{stroke:#e0301e;stroke-miterlimit:10;stroke-width:4px;}.cls-3{fill:#e0301e;}</style></defs><title>Artboard 1</title><circle id="Layer_2" data-name="Layer 2" class="cls-1" cx="65" cy="65" r="65"/><circle id="Layer_3" data-name="Layer 3" class="cls-2" cx="65" cy="65" r="61"/><g id="Layer_4" data-name="Layer 4"><path class="cls-3" d="M40,61.5c-4.8-.6-8.7,3.6-8.7,9.3S35.2,81.5,40,82.1s8.7-3.6,8.7-9.3l-8.7-1ZM32.9,48.3,53,52.9c.2,0,.3.1.5.1a2.34,2.34,0,0,0,2.2-1.7A2.27,2.27,0,0,0,54,48.6L33.9,44a2.27,2.27,0,0,0-2.7,1.7A2.3,2.3,0,0,0,32.9,48.3Z"/><path class="cls-3" d="M42.6,58.9V69.2l8.7,1C51.4,64.5,47.5,59.5,42.6,58.9Z"/><path class="cls-3" d="M100.6,33.1,63,41.8,25.4,33.1a2.12,2.12,0,0,0-1.9.4,2.34,2.34,0,0,0-.8,1.8V85.2a2.34,2.34,0,0,0,1.7,2.2l38.1,8.8c.2,0,.3.1.5.1a.9.9,0,0,0,.5-.1l38.1-8.8a2.17,2.17,0,0,0,1.7-2.2v-50a2.5,2.5,0,0,0-.8-1.8A2.44,2.44,0,0,0,100.6,33.1Zm-39.8,58L27.2,83.4V38.1l33.6,7.7Zm6.6-45.9,28.4-6.5a2.26,2.26,0,0,1,1,4.4L68.4,49.6c-.2,0-.3.1-.5.1A2.34,2.34,0,0,1,65.7,48,2.41,2.41,0,0,1,67.4,45.2Zm0,8,14.2-3.3a2.26,2.26,0,0,1,1,4.4L68.4,57.6c-.2,0-.3.1-.5.1A2.34,2.34,0,0,1,65.7,56,2.41,2.41,0,0,1,67.4,53.2ZM99,70.6a1.85,1.85,0,0,1-1.1,1.7,1.7,1.7,0,0,1-.7.1,2.11,2.11,0,0,1-1.3-.5l-2.3-2.3-6.2,6.2a2.14,2.14,0,0,1-2.5.4l-7.1-3.3-8,14.7a2.4,2.4,0,0,1-2,1.2,2.28,2.28,0,0,1-1.1-.3,2.2,2.2,0,0,1-.9-3l9-16.5a2.28,2.28,0,0,1,2.9-1l7.6,3.6,5.1-5.1L88.1,64a1.84,1.84,0,0,1-.4-2,1.75,1.75,0,0,1,1.7-1.1h7.8A1.79,1.79,0,0,1,99,62.7v7.9Z"/></g></svg>